<svg id="Layer_1" data-name="Layer 1" xmlns="http://www.w3.org/2000/svg" viewBox="0 0 147.86 152"><defs><style>.cls-1{fill:#818181;}</style></defs><path class="cls-1" d="M6.07,122V37.6c.24-1,.52-2.07.72-3.12C10,17.24,20.83,7.06,38.29,4.71c2-.27,2.84.3,2.77,2.36-.08,2.67-.05,5.35,0,8a11.94,11.94,0,0,0,.46,3.15,6,6,0,0,0,5.78,4.09,5.68,5.68,0,0,0,5.48-4.68c.38-3.41.33-6.86.41-10.29C53.27,4.11,53.31,4,56.56,4h46.79c3.24,0,3.29.11,3.36,3.36a80.05,80.05,0,0,0,.42,10.29c.69,4.38,5.77,6.07,9.28,3.34a6.49,6.49,0,0,0,2.43-5.45c0-3,0-6,0-8.94,0-1.42.52-2.18,2.06-2,13.57,1.79,24.84,8.16,30,22.15a47.45,47.45,0,0,1,2.92,16.63q.06,36.14,0,72.26a66.87,66.87,0,0,1-.51,8c-2.05,16.65-11.71,27.43-27.92,31.18-2,.46-4,.76-6.07,1.14H40.49c-.83-.15-1.64-.34-2.47-.46-16.1-2.22-26.42-11-30.43-26.11C7,127,6.57,124.51,6.07,122ZM79.82,71.53c10.86,0,21.72,0,32.58,0,3.82,0,6.37-2.4,6.35-5.76a6.08,6.08,0,0,0-6.23-6q-32.56-.06-65.14,0A7.28,7.28,0,0,0,43.58,61a5.8,5.8,0,0,0,3.67,10.49C58.11,71.55,69,71.53,79.82,71.53ZM63.5,112.75c5.43,0,10.85.06,16.28,0a5.84,5.84,0,0,0,6.06-5.86,5.72,5.72,0,0,0-5.92-5.94c-10.92-.06-21.85,0-32.77,0a5.48,5.48,0,0,0-5.35,3.24,6,6,0,0,0,5.43,8.58C52.66,112.83,58.08,112.75,63.5,112.75Z" transform="translate(-6.07 -4)"/></svg>