<svg id="Layer_1" data-name="Layer 1" xmlns="http://www.w3.org/2000/svg" viewBox="0 0 150 128.4"><defs><style>.cls-1{fill:#818181;}</style></defs><path class="cls-1" d="M73.46,17.94H84.54c.85.21,1.7.4,2.54.62,5.82,1.49,11.83,2.48,17.42,4.6,17.92,6.79,31.07,19.46,41.83,35a39.77,39.77,0,0,1,7,18.29,26.91,26.91,0,0,0,.62,2.8v5.84a22.49,22.49,0,0,0-.57,2.53,41,41,0,0,1-7.74,19.55c-11.71,16.5-26.15,29.53-45.84,35.65-5.52,1.71-11.36,2.4-17.06,3.56H72.87c-5-1.16-10.22-1.74-15-3.56C31.3,132.54,11.31,115.73,4,86.81V77.47c.7-2.91,1.25-5.87,2.13-8.72,2.34-7.61,7.27-13.67,12.24-19.64C31.54,33.32,47.7,22.39,68.32,18.88,70,18.59,71.74,18.25,73.46,17.94Zm35.71,64.6A30.32,30.32,0,0,0,79,51.83c-16.41-.12-30.49,13.64-30.48,29.81,0,17.23,13.46,30.92,30.33,30.88A30.33,30.33,0,0,0,109.17,82.54Z" transform="translate(-4 -17.94)"/><path class="cls-1" d="M78.94,103.25a21,21,0,0,1-21.21-21A21.25,21.25,0,0,1,79,60.81,21.47,21.47,0,0,1,100.24,82,21.14,21.14,0,0,1,78.94,103.25Z" transform="translate(-4 -17.94)"/></svg>